<?xml version="1.0" standalone="no"?>
<svg viewBox="0 0 200 200" xmlns="http://www.w3.org/2000/svg">
  <path fill="#FF0066" d="M23.3,-35.9C35.6,-33.3,54.8,-38,60.8,-33.2C66.7,-28.5,59.4,-14.2,56.8,-1.5C54.1,11.2,56.1,22.4,51.4,29.3C46.7,36.2,35.3,38.8,25.6,35.8C15.9,32.8,8,24.3,-1.1,26.2C-10.2,28.2,-20.4,40.6,-32.6,45C-44.8,49.4,-58.9,45.8,-61.8,36.9C-64.7,28.1,-56.4,14,-51.4,2.9C-46.5,-8.3,-44.8,-16.6,-45,-30.7C-45.1,-44.8,-46.9,-64.6,-39.7,-70.2C-32.5,-75.8,-16.3,-67.2,-5.4,-57.9C5.5,-48.6,11,-38.5,23.3,-35.9Z" transform="translate(100 100)" />
</svg>
